<svg xmlns="http://www.w3.org/2000/svg" viewBox="0 0 640 160" width="640" height="160">
  <defs>
    <linearGradient id="bg2" x1="0%" y1="0%" x2="100%" y2="100%">
      <stop offset="0%" style="stop-color:#0f172a"/>
      <stop offset="100%" style="stop-color:#1e3a8a"/>
    </linearGradient>
    <linearGradient id="accent2" x1="0%" y1="0%" x2="100%" y2="100%">
      <stop offset="0%" style="stop-color:#06b6d4"/>
      <stop offset="100%" style="stop-color:#3b82f6"/>
    </linearGradient>
    <filter id="glow2">
      <feGaussianBlur stdDeviation="3" result="coloredBlur"/>
      <feMerge>
        <feMergeNode in="coloredBlur"/>
        <feMergeNode in="SourceGraphic"/>
      </feMerge>
    </filter>
  </defs>

  <!-- Background -->
  <rect width="640" height="160" rx="20" fill="url(#bg2)"/>

  <!-- Hexagon icon (scaled down) -->
  <g transform="translate(20,20) scale(0.234)">
    <polygon points="256,72 406,162 406,350 256,440 106,350 106,162"
      fill="none" stroke="url(#accent2)" stroke-width="6" opacity="0.9"/>
    <polygon points="256,120 370,185 370,327 256,392 142,327 142,185"
      fill="#0f172a" opacity="0.7"/>
    <rect x="176" y="172" width="22" height="168" rx="8" fill="url(#accent2)" filter="url(#glow2)"/>
    <path d="M198 172 Q272 172 272 214 Q272 256 198 256" fill="none" stroke="url(#accent2)" stroke-width="22" stroke-linecap="round" filter="url(#glow2)"/>
    <path d="M198 256 Q284 256 284 298 Q284 340 198 340" fill="none" stroke="url(#accent2)" stroke-width="22" stroke-linecap="round" filter="url(#glow2)"/>
    <polyline points="290,256 310,256 322,228 338,290 350,240 366,256 386,256"
      fill="none" stroke="#06b6d4" stroke-width="12" stroke-linecap="round" stroke-linejoin="round" opacity="0.85"/>
  </g>

  <!-- BCWork text -->
  <text x="150" y="100" font-family="'Inter', 'Helvetica Neue', Arial, sans-serif"
    font-size="72" font-weight="800" letter-spacing="-2"
    fill="white">BC</text>
  <text x="252" y="100" font-family="'Inter', 'Helvetica Neue', Arial, sans-serif"
    font-size="72" font-weight="300" letter-spacing="-2"
    fill="url(#accent2)">Work</text>

  <!-- Tagline -->
  <text x="152" y="130" font-family="'Inter', 'Helvetica Neue', Arial, sans-serif"
    font-size="18" font-weight="400" letter-spacing="3"
    fill="#64748b">MONITORING · PRODUCTIVITY</text>
</svg>